<svg xmlns="http://www.w3.org/2000/svg" width="21.5" height="21.5" viewBox="0 0 21.5 21.5">
  <g id="gallery" transform="translate(-3.25 -4.25)">
    <path id="_1" data-name="1" d="M6.25,8A2.75,2.75,0,1,0,9,5.25,2.75,2.75,0,0,0,6.25,8Zm4,0A1.25,1.25,0,1,1,9,6.75,1.25,1.25,0,0,1,10.25,8ZM22,9.25a.75.75,0,0,0-.75.75v2.267l-.391-.335a2.978,2.978,0,0,0-3.8,0L12.9,15.5a1.481,1.481,0,0,1-1.845,0l-.332-.285a2.986,2.986,0,0,0-3.547-.193l-4.127,2.77A11.194,11.194,0,0,1,2.75,15V9C2.75,4.386,4.386,2.75,9,2.75h4a.75.75,0,0,0,0-1.5H9C3.568,1.25,1.25,3.567,1.25,9v6c0,5.433,2.318,7.75,7.75,7.75h6c5.432,0,7.75-2.317,7.75-7.75V10A.75.75,0,0,0,22,9.25ZM21.25,15c0,4.614-1.636,6.25-6.25,6.25H9c-2.757,0-4.444-.591-5.361-2.045l4.372-2.934a1.5,1.5,0,0,1,1.735.084l.332.286a2.973,2.973,0,0,0,3.8,0L18.04,13.07a1.485,1.485,0,0,1,1.844,0l1.368,1.174ZM15,5a.75.75,0,0,1,.75-.75h2v-2a.75.75,0,0,1,1.5,0v2h2a.75.75,0,0,1,0,1.5h-2v2a.75.75,0,0,1-1.5,0v-2h-2A.75.75,0,0,1,15,5Z" transform="translate(2 3)" fill="#fff"/>
  </g>
</svg>
