<svg id="Web" xmlns="http://www.w3.org/2000/svg" width="24" height="24" viewBox="0 0 24 24">
  <path id="Vector" d="M12,0A12,12,0,1,0,24,12,12,12,0,0,0,12,0Zm.965,21.861a.509.509,0,0,0-.183.026V16.226c1.357-.026,2.583-.052,3.7-.13a14.957,14.957,0,0,1-3.522,5.765Zm-1.93,0A15.079,15.079,0,0,1,7.513,16.1c1.1.078,2.348.13,3.7.13v5.661c-.052,0-.1-.026-.183-.026ZM2.087,12a11.805,11.805,0,0,1,.183-1.93c.574-.1,1.67-.261,3.209-.417a13.859,13.859,0,0,0-.209,2.374,16.492,16.492,0,0,0,.183,2.348c-1.513-.157-2.635-.313-3.209-.417A16.476,16.476,0,0,1,2.087,12Zm4.774,0a12.716,12.716,0,0,1,.261-2.5c1.2-.078,2.557-.157,4.1-.157v5.322c-1.513-.026-2.9-.078-4.122-.183A14.539,14.539,0,0,1,6.861,12Zm6.078-9.861A15.9,15.9,0,0,1,16.461,7.9c-1.1-.078-2.322-.13-3.678-.13V2.113C12.835,2.113,12.887,2.139,12.939,2.139Zm-1.722-.026V7.774c-1.357.026-2.583.052-3.678.13a15.947,15.947,0,0,1,3.5-5.765c.078,0,.13-.026.183-.026Zm1.565,12.548V9.339c1.513.026,2.9.078,4.1.157A12.778,12.778,0,0,1,16.9,14.5C15.7,14.583,14.322,14.635,12.783,14.661ZM18.5,9.652c1.539.157,2.635.313,3.209.417A9.511,9.511,0,0,1,21.913,12a11.805,11.805,0,0,1-.183,1.93c-.574.1-1.67.261-3.209.417a13.908,13.908,0,0,0,.183-2.374A13.482,13.482,0,0,0,18.5,9.652ZM21.235,8.4c-.73-.1-1.774-.235-3.1-.365A17.131,17.131,0,0,0,15.5,2.713,9.942,9.942,0,0,1,21.235,8.4ZM8.5,2.713a16.148,16.148,0,0,0-2.635,5.3c-1.3.1-2.348.261-3.1.365A10.047,10.047,0,0,1,8.5,2.713ZM2.765,15.6c.73.1,1.774.235,3.078.365a16.149,16.149,0,0,0,2.609,5.3A10.034,10.034,0,0,1,2.765,15.6Zm12.783,5.661a15.99,15.99,0,0,0,2.609-5.27c1.3-.1,2.348-.261,3.078-.365a10.067,10.067,0,0,1-5.687,5.635Z" fill="#ababab"/>
</svg>
