<svg xmlns="http://www.w3.org/2000/svg" width="44.636" height="70.973" viewBox="0 0 44.636 70.973">
  <path id="Arrow_2" data-name="Arrow 2" d="M1136.718,6201.479c.028-.06.042-.123.066-.183a2.058,2.058,0,0,0,.185-.841c0-.046.016-.089.016-.137v0a2.712,2.712,0,0,0-.07-.61c-.01-.044-.031-.083-.044-.127a2.816,2.816,0,0,0-.161-.451c-.017-.035-.042-.065-.059-.1a3.09,3.09,0,0,0-.7-.894l-22.178-19.239a3.94,3.94,0,0,0-5.019,0,2.8,2.8,0,0,0,0,4.352l16.118,13.982-55.3-.05h0a3.11,3.11,0,1,0,0,6.158l55.315.049-16.123,13.987a2.8,2.8,0,0,0,0,4.353,3.942,3.942,0,0,0,5.019,0l22.139-19.206a3.224,3.224,0,0,0,.49-.514c.013-.016.02-.035.032-.051A3.014,3.014,0,0,0,1136.718,6201.479Z" transform="translate(6222.627 -1066.012) rotate(90)" fill="#233d4d"/>
</svg>
